<mxfile host="app.diagrams.net" agent="Mozilla/5.0 (Windows NT 10.0; Win64; x64) AppleWebKit/537.36 (KHTML, like Gecko) Chrome/131.0.0.0 Safari/537.36" version="26.0.6">
  <diagram name="Strona-1" id="p3D_83ls6Rz5utP9l_za">
    <mxGraphModel dx="1728" dy="922" grid="1" gridSize="10" guides="1" tooltips="1" connect="1" arrows="1" fold="1" page="1" pageScale="1" pageWidth="1169" pageHeight="827" math="0" shadow="0">
      <root>
        <mxCell id="0" />
        <mxCell id="1" parent="0" />
        <mxCell id="i30zzXLviCfNnO-DWSTZ-1" value="Start" style="ellipse;whiteSpace=wrap;html=1;" parent="1" vertex="1">
          <mxGeometry x="516.88" y="100" width="120" height="80" as="geometry" />
        </mxCell>
        <mxCell id="i30zzXLviCfNnO-DWSTZ-8" value="" style="edgeStyle=orthogonalEdgeStyle;rounded=0;orthogonalLoop=1;jettySize=auto;html=1;" parent="1" target="i30zzXLviCfNnO-DWSTZ-7" edge="1">
          <mxGeometry relative="1" as="geometry">
            <mxPoint x="576.87" y="180" as="sourcePoint" />
          </mxGeometry>
        </mxCell>
        <mxCell id="i30zzXLviCfNnO-DWSTZ-10" value="" style="edgeStyle=orthogonalEdgeStyle;rounded=0;orthogonalLoop=1;jettySize=auto;html=1;" parent="1" source="i30zzXLviCfNnO-DWSTZ-7" target="i30zzXLviCfNnO-DWSTZ-9" edge="1">
          <mxGeometry relative="1" as="geometry" />
        </mxCell>
        <mxCell id="i30zzXLviCfNnO-DWSTZ-7" value="&lt;div&gt;&lt;span style=&quot;background-color: transparent; color: light-dark(rgb(0, 0, 0), rgb(255, 255, 255));&quot;&gt;&quot;Menu:&quot;&lt;/span&gt;&lt;/div&gt;&lt;div&gt;&lt;span style=&quot;background-color: transparent; color: light-dark(rgb(0, 0, 0), rgb(255, 255, 255));&quot;&gt;&quot;1. Dodaj osobę do bazy&quot;&lt;/span&gt;&lt;/div&gt;&lt;div&gt;&quot;2. Usuń osobę z bazy&quot;&lt;/div&gt;&lt;div&gt;&lt;span style=&quot;background-color: transparent; color: light-dark(rgb(0, 0, 0), rgb(255, 255, 255));&quot;&gt;&quot;3. Edytuj osobę&quot;&lt;/span&gt;&lt;/div&gt;&lt;div&gt;&lt;span style=&quot;background-color: transparent; color: light-dark(rgb(0, 0, 0), rgb(255, 255, 255));&quot;&gt;&quot;4. Wyświetl bazę&quot;&lt;/span&gt;&lt;/div&gt;&lt;div&gt;&quot;5. Grupuj po zainteresowaniach&quot;&lt;/div&gt;&lt;div&gt;&lt;span style=&quot;background-color: transparent; color: light-dark(rgb(0, 0, 0), rgb(255, 255, 255));&quot;&gt;&quot;6. Wyszukaj osobę&lt;/span&gt;&lt;/div&gt;&lt;div&gt;&lt;span style=&quot;background-color: transparent; color: light-dark(rgb(0, 0, 0), rgb(255, 255, 255));&quot;&gt;&quot;7. Wyjdź&quot;&lt;/span&gt;&lt;/div&gt;&lt;div&gt;&lt;span style=&quot;background-color: transparent; color: light-dark(rgb(0, 0, 0), rgb(255, 255, 255));&quot;&gt;&quot;Wybór: &quot;&lt;/span&gt;&lt;/div&gt;" style="shape=parallelogram;perimeter=parallelogramPerimeter;whiteSpace=wrap;html=1;fixedSize=1;align=center;" parent="1" vertex="1">
          <mxGeometry x="470" y="214" width="213.75" height="156" as="geometry" />
        </mxCell>
        <mxCell id="4QMDZyq7ZuJOxnmz9UBf-13" value="" style="edgeStyle=orthogonalEdgeStyle;rounded=0;orthogonalLoop=1;jettySize=auto;html=1;" edge="1" parent="1" source="i30zzXLviCfNnO-DWSTZ-9" target="4QMDZyq7ZuJOxnmz9UBf-1">
          <mxGeometry relative="1" as="geometry" />
        </mxCell>
        <mxCell id="i30zzXLviCfNnO-DWSTZ-9" value="choice" style="shape=parallelogram;perimeter=parallelogramPerimeter;whiteSpace=wrap;html=1;fixedSize=1;" parent="1" vertex="1">
          <mxGeometry x="516.88" y="410" width="120" height="60" as="geometry" />
        </mxCell>
        <mxCell id="4QMDZyq7ZuJOxnmz9UBf-4" value="" style="edgeStyle=orthogonalEdgeStyle;rounded=0;orthogonalLoop=1;jettySize=auto;html=1;exitX=0.5;exitY=1;exitDx=0;exitDy=0;" edge="1" parent="1" source="4QMDZyq7ZuJOxnmz9UBf-1" target="4QMDZyq7ZuJOxnmz9UBf-3">
          <mxGeometry relative="1" as="geometry">
            <mxPoint x="576.87" y="609.9974191883346" as="sourcePoint" />
          </mxGeometry>
        </mxCell>
        <mxCell id="4QMDZyq7ZuJOxnmz9UBf-14" value="Tak" style="edgeLabel;html=1;align=center;verticalAlign=middle;resizable=0;points=[];" vertex="1" connectable="0" parent="4QMDZyq7ZuJOxnmz9UBf-4">
          <mxGeometry x="-0.1474" y="1" relative="1" as="geometry">
            <mxPoint x="-2" as="offset" />
          </mxGeometry>
        </mxCell>
        <mxCell id="4QMDZyq7ZuJOxnmz9UBf-15" style="edgeStyle=orthogonalEdgeStyle;rounded=0;orthogonalLoop=1;jettySize=auto;html=1;" edge="1" parent="1" source="4QMDZyq7ZuJOxnmz9UBf-1">
          <mxGeometry relative="1" as="geometry">
            <mxPoint x="576.87" y="1020" as="targetPoint" />
            <Array as="points">
              <mxPoint x="741.87" y="550" />
              <mxPoint x="741.87" y="1020" />
            </Array>
          </mxGeometry>
        </mxCell>
        <mxCell id="4QMDZyq7ZuJOxnmz9UBf-16" value="Nie" style="edgeLabel;html=1;align=center;verticalAlign=middle;resizable=0;points=[];" vertex="1" connectable="0" parent="4QMDZyq7ZuJOxnmz9UBf-15">
          <mxGeometry x="-0.886" y="-1" relative="1" as="geometry">
            <mxPoint as="offset" />
          </mxGeometry>
        </mxCell>
        <mxCell id="4QMDZyq7ZuJOxnmz9UBf-1" value="Czy cin.fail() == true?" style="rhombus;whiteSpace=wrap;html=1;" vertex="1" parent="1">
          <mxGeometry x="499.38" y="510" width="154.99" height="80" as="geometry" />
        </mxCell>
        <mxCell id="4QMDZyq7ZuJOxnmz9UBf-6" value="" style="edgeStyle=orthogonalEdgeStyle;rounded=0;orthogonalLoop=1;jettySize=auto;html=1;" edge="1" parent="1" source="4QMDZyq7ZuJOxnmz9UBf-3" target="4QMDZyq7ZuJOxnmz9UBf-5">
          <mxGeometry relative="1" as="geometry" />
        </mxCell>
        <mxCell id="4QMDZyq7ZuJOxnmz9UBf-3" value="cin.clear()" style="shape=process;whiteSpace=wrap;html=1;backgroundOutline=1;" vertex="1" parent="1">
          <mxGeometry x="516.37" y="640" width="120" height="60" as="geometry" />
        </mxCell>
        <mxCell id="4QMDZyq7ZuJOxnmz9UBf-9" value="" style="edgeStyle=orthogonalEdgeStyle;rounded=0;orthogonalLoop=1;jettySize=auto;html=1;" edge="1" parent="1" source="4QMDZyq7ZuJOxnmz9UBf-5" target="4QMDZyq7ZuJOxnmz9UBf-7">
          <mxGeometry relative="1" as="geometry" />
        </mxCell>
        <mxCell id="4QMDZyq7ZuJOxnmz9UBf-5" value="cin.ignore(2000000, &#39;\n&#39;)" style="shape=process;whiteSpace=wrap;html=1;backgroundOutline=1;" vertex="1" parent="1">
          <mxGeometry x="488.87" y="740" width="174.99" height="60" as="geometry" />
        </mxCell>
        <mxCell id="4QMDZyq7ZuJOxnmz9UBf-10" value="" style="edgeStyle=orthogonalEdgeStyle;rounded=0;orthogonalLoop=1;jettySize=auto;html=1;" edge="1" parent="1" source="4QMDZyq7ZuJOxnmz9UBf-7" target="4QMDZyq7ZuJOxnmz9UBf-8">
          <mxGeometry relative="1" as="geometry" />
        </mxCell>
        <mxCell id="4QMDZyq7ZuJOxnmz9UBf-7" value="&quot;To nie jest liczba.&amp;nbsp;&lt;div&gt;Spróbuj ponownie.&quot;&lt;/div&gt;" style="shape=parallelogram;perimeter=parallelogramPerimeter;whiteSpace=wrap;html=1;fixedSize=1;" vertex="1" parent="1">
          <mxGeometry x="488.87" y="840" width="175" height="60" as="geometry" />
        </mxCell>
        <mxCell id="4QMDZyq7ZuJOxnmz9UBf-12" value="" style="edgeStyle=orthogonalEdgeStyle;rounded=0;orthogonalLoop=1;jettySize=auto;html=1;" edge="1" parent="1" source="4QMDZyq7ZuJOxnmz9UBf-8" target="4QMDZyq7ZuJOxnmz9UBf-11">
          <mxGeometry relative="1" as="geometry" />
        </mxCell>
        <mxCell id="4QMDZyq7ZuJOxnmz9UBf-8" value="choice = 0" style="rounded=0;whiteSpace=wrap;html=1;" vertex="1" parent="1">
          <mxGeometry x="516.37" y="940" width="120" height="60" as="geometry" />
        </mxCell>
        <mxCell id="4QMDZyq7ZuJOxnmz9UBf-11" value="Koniec" style="ellipse;whiteSpace=wrap;html=1;" vertex="1" parent="1">
          <mxGeometry x="516.37" y="1040" width="120" height="80" as="geometry" />
        </mxCell>
      </root>
    </mxGraphModel>
  </diagram>
</mxfile>
